<svg xmlns="http://www.w3.org/2000/svg" viewBox="18 1 300 300"><path fill="#e6892f" d="M155.6,130.9C155.0,129.7 153.6,126.7 152.5,124.2C151.4,121.8 150.0,118.7 149.4,117.5C148.9,116.3 147.5,113.5 146.5,111.2C145.5,109.0 143.9,105.7 143.1,103.9C139.2,95.5 138.5,94.0 136.8,90.4C135.8,88.3 134.3,85.1 133.5,83.2C131.7,79.2 129.6,74.7 127.2,69.8C124.6,64.2 122.2,58.9 120.5,55.3C119.7,53.5 118.3,50.5 117.5,48.7C116.6,46.9 115.2,43.7 114.2,41.6C113.2,39.5 111.7,36.3 110.9,34.6C110.1,32.9 108.9,30.1 108.1,28.4C107.3,26.7 105.8,23.5 104.8,21.4C100.8,12.9 100.0,10.9 100.2,10.6C100.4,10.5 101.3,11.0 102.4,11.7C112.0,18.7 128.0,28.9 140.2,35.8C143.3,37.5 158.3,45.0 161.8,46.5C166.2,48.5 168.7,49.6 170.4,50.3C171.3,50.7 172.7,51.3 173.6,51.7C174.5,52.1 176.3,52.8 177.5,53.3C179.7,54.1 181.0,54.6 183.1,55.5C183.7,55.7 185.2,56.2 186.2,56.6C187.3,56.9 188.5,57.3 188.8,57.5C189.0,57.7 190.3,58.1 191.5,58.5C192.7,58.9 194.0,59.4 194.2,59.6C194.5,59.8 195.1,60.0 195.6,60.0C196.1,60.0 196.9,60.2 197.4,60.4C197.9,60.7 199.0,61.1 200.0,61.4C207.3,63.6 209.5,64.2 211.2,64.8C213.0,65.3 222.5,67.7 231.2,69.8C237.7,71.3 249.9,73.5 257.8,74.5C260.2,74.8 263.8,75.2 265.6,75.5C267.5,75.8 269.9,76.0 270.9,76.0C273.9,76.0 277.5,76.6 277.5,77.1C277.5,77.3 277.0,77.7 276.4,78.0C275.8,78.2 273.2,79.3 270.8,80.5C268.3,81.7 264.9,83.2 263.2,84.0C261.6,84.8 258.5,86.2 256.4,87.2C254.3,88.2 251.1,89.6 249.3,90.5C247.5,91.3 244.5,92.7 242.7,93.5C240.9,94.4 237.7,95.8 235.6,96.8C233.5,97.8 230.3,99.3 228.6,100.1C226.9,100.9 224.1,102.1 222.4,102.9C220.7,103.7 217.5,105.2 215.4,106.2C213.3,107.2 210.1,108.6 208.3,109.5C206.5,110.3 203.5,111.7 201.7,112.5C199.9,113.4 196.7,114.8 194.6,115.8C192.5,116.8 189.3,118.3 187.6,119.1C185.9,119.9 183.1,121.1 181.4,121.9C179.7,122.7 176.5,124.2 174.4,125.2C172.3,126.2 169.1,127.7 167.2,128.5C165.3,129.4 162.4,130.7 160.8,131.5C156.9,133.4 156.7,133.4 155.6,130.9Z"/><path fill="#00598c" d="M243.5,262.9C242.9,261.3 240.3,255.7 237.0,248.6C235.6,245.7 234.9,244.2 231.1,235.9C230.3,234.2 228.8,231.0 227.8,228.9C226.8,226.8 225.4,223.6 224.5,221.8C223.7,220.0 222.3,217.0 221.5,215.2C220.6,213.4 219.2,210.2 218.2,208.2C217.3,206.2 215.7,202.8 214.8,200.8C213.8,198.8 212.4,195.6 211.5,193.8C210.7,192.0 209.3,189.0 208.5,187.2C207.6,185.4 206.2,182.2 205.2,180.2C204.3,178.2 202.7,174.8 201.8,172.8C200.8,170.8 199.4,167.6 198.5,165.8C197.7,164.0 196.3,161.1 195.5,159.3C191.8,151.1 189.9,147.1 189.0,145.3C187.3,142.0 186.7,142.4 200.1,136.3C201.7,135.6 204.7,134.2 206.9,133.2C215.8,129.0 218.0,128.0 221.2,126.5C223.0,125.7 226.0,124.3 227.8,123.5C229.6,122.6 232.8,121.2 234.8,120.2C236.8,119.3 240.2,117.7 242.2,116.8C244.2,115.8 247.4,114.4 249.2,113.5C251.0,112.7 254.0,111.3 255.8,110.5C257.6,109.6 260.8,108.2 262.8,107.2C264.8,106.3 268.2,104.7 270.3,103.7C272.3,102.8 275.3,101.4 276.9,100.7C278.5,100.0 281.4,98.6 283.4,97.7C290.3,94.5 294.8,92.4 297.8,91.0C299.4,90.2 302.7,88.7 305.2,87.5C307.6,86.4 309.7,85.6 309.9,85.7C310.0,85.8 309.0,87.5 307.6,89.4C303.6,94.8 296.3,106.0 293.0,111.8C292.5,112.6 291.3,114.6 290.4,116.2C286.2,123.4 277.7,140.0 274.4,147.5C274.0,148.5 273.2,150.3 272.6,151.5C272.0,152.7 270.5,156.4 269.3,159.8C268.0,163.1 266.7,166.2 266.5,166.8C265.1,170.3 260.0,185.2 258.5,190.5C258.1,191.7 257.6,193.7 257.2,194.8C256.7,196.6 253.6,209.1 252.5,213.8C250.8,221.5 250.2,224.5 248.9,232.2C247.6,240.2 246.8,247.3 246.0,256.0C245.3,265.1 244.9,266.0 243.5,262.9Z"/><path fill="#e42842" d="M231.2,290.5C230.5,289.3 210.6,276.5 201.2,271.2C193.4,266.9 180.8,260.4 174.2,257.5C172.9,256.9 170.8,256.0 169.8,255.5C159.3,250.8 139.8,243.8 128.2,240.5C125.2,239.7 122.1,238.8 121.2,238.5C120.4,238.3 116.7,237.4 113.0,236.5C109.3,235.6 105.5,234.7 104.5,234.5C103.5,234.3 101.4,233.8 99.8,233.5C98.1,233.2 95.7,232.8 94.5,232.5C90.3,231.7 81.5,230.4 74.8,229.5C72.5,229.3 68.8,228.8 66.5,228.5C64.1,228.2 60.7,228.0 58.9,228.0C53.8,228.0 52.4,226.9 55.6,225.5C57.2,224.9 62.8,222.3 69.9,219.0C71.6,218.2 74.4,216.9 76.1,216.1C77.8,215.3 81.0,213.8 83.1,212.8C85.2,211.8 88.4,210.4 90.2,209.5C92.0,208.7 95.0,207.3 96.8,206.5C98.6,205.6 101.8,204.2 103.8,203.2C105.8,202.3 109.2,200.7 111.2,199.8C113.2,198.8 116.4,197.4 118.2,196.5C120.0,195.7 123.0,194.3 124.8,193.5C126.5,192.7 129.5,191.3 131.2,190.5C133.0,189.7 136.0,188.3 137.8,187.5C139.6,186.6 142.8,185.2 144.8,184.2C146.8,183.3 150.2,181.7 152.2,180.8C155.8,179.1 159.1,177.5 165.9,174.5C167.7,173.6 170.6,172.3 172.2,171.5C176.0,169.6 176.6,169.6 177.5,171.6C177.9,172.5 179.3,175.6 180.6,178.5C183.5,184.7 184.9,187.6 186.9,192.0C187.7,193.8 189.2,197.0 190.2,199.1C191.2,201.2 192.6,204.4 193.5,206.2C194.3,208.0 195.7,211.0 196.5,212.8C197.4,214.6 198.8,217.8 199.8,219.8C200.7,221.8 202.3,225.2 203.2,227.2C204.2,229.2 205.6,232.4 206.5,234.2C207.3,236.0 208.7,239.0 209.5,240.8C210.4,242.6 211.8,245.8 212.8,247.9C213.8,250.0 215.3,253.2 216.1,254.9C216.9,256.6 218.1,259.4 218.9,261.1C219.7,262.8 221.2,266.0 222.2,268.1C223.2,270.2 224.6,273.4 225.5,275.2C226.3,277.0 227.7,280.0 228.6,281.9C232.1,289.5 232.5,290.4 232.5,290.7C232.5,291.2 231.6,291.0 231.2,290.5Z"/><path fill="#27a44a" d="M27.0,215.8C27.0,215.4 27.2,214.9 27.5,214.7C28.3,214.3 38.2,199.3 42.6,192.0C47.9,183.2 49.9,179.6 55.4,168.5C59.7,159.8 61.3,156.5 63.8,150.6C67.1,143.0 66.9,143.3 69.4,136.8C70.2,134.6 71.3,131.7 71.7,130.5C72.5,128.6 75.0,120.9 76.5,116.2C78.2,110.8 81.6,98.1 82.5,93.5C82.9,92.0 83.3,90.2 83.5,89.5C83.9,88.4 85.0,82.6 86.5,74.2C87.2,70.3 87.9,65.6 88.5,61.0C88.8,58.7 89.3,55.4 89.5,53.7C89.8,52.0 90.0,49.6 90.0,48.4C90.0,45.0 90.6,41.5 91.1,41.8C91.3,41.9 92.0,43.1 92.6,44.4C93.1,45.7 94.4,48.4 95.3,50.3C96.2,52.3 97.7,55.4 98.5,57.2C99.3,59.1 100.8,62.3 101.8,64.4C102.8,66.5 104.2,69.6 105.0,71.2C105.8,72.9 107.2,76.0 108.2,78.1C109.2,80.2 110.6,83.4 111.5,85.2C112.3,87.0 113.7,90.0 114.5,91.8C115.4,93.6 116.8,96.8 117.8,98.8C118.7,100.8 120.3,104.2 121.2,106.2C122.2,108.2 123.6,111.4 124.5,113.2C125.3,115.0 126.7,118.0 127.5,119.8C128.4,121.6 129.8,124.8 130.8,126.8C131.7,128.8 133.3,132.2 134.2,134.2C135.9,137.7 137.6,141.5 140.4,147.5C141.1,149.0 142.7,152.6 144.1,155.4C146.0,159.5 146.4,160.8 145.9,161.3C145.6,161.7 145.2,162.0 145.0,162.0C144.8,162.0 142.5,163.0 139.9,164.2C137.4,165.4 134.1,166.9 132.8,167.5C131.4,168.1 128.2,169.6 125.6,170.8C123.1,172.0 119.6,173.7 117.8,174.5C116.0,175.3 113.0,176.7 111.2,177.5C109.5,178.3 106.5,179.7 104.7,180.5C102.9,181.4 99.7,182.8 97.6,183.8C95.5,184.8 92.4,186.2 90.8,187.0C89.1,187.8 86.0,189.2 83.9,190.2C81.8,191.2 78.6,192.6 76.8,193.5C75.0,194.3 72.0,195.7 70.2,196.5C68.4,197.4 65.2,198.8 63.2,199.8C61.2,200.7 57.8,202.3 55.8,203.2C53.8,204.2 50.6,205.6 48.8,206.5C44.3,208.6 40.0,210.5 35.2,212.7C33.0,213.7 30.5,214.9 29.5,215.4C28.5,215.8 27.6,216.3 27.4,216.4C27.2,216.5 27.0,216.2 27.0,215.8Z"/></svg>